<?xml version="1.0" encoding="UTF-8" standalone="no"?>
<svg width="309px" height="253px" viewBox="0 0 309 253" version="1.1" xmlns="http://www.w3.org/2000/svg" xmlns:xlink="http://www.w3.org/1999/xlink" xmlns:sketch="http://www.bohemiancoding.com/sketch/ns">
    <!-- Generator: Sketch 3.3.3 (12081) - http://www.bohemiancoding.com/sketch -->
    <title>Artboard 1</title>
    <desc>Created with Sketch.</desc>
    <defs></defs>
    <g id="Page-1" stroke="none" stroke-width="1" fill="none" fill-rule="evenodd" sketch:type="MSPage">
        <g id="Artboard-1" sketch:type="MSArtboardGroup" fill="#000000">
            <path d="M105.726069,168.225818 L101.290286,168.225818 C91.0319904,191.791464 78.5558031,201.217138 63.3076158,201.217138 C52.772266,201.217138 46.6726994,192.622626 46.6726994,175.710656 C46.6726994,157.967522 51.6640493,138.83766 59.1488867,122.756852 C67.4663449,105.013719 76.3379115,97.8059358 83.5456948,97.8059358 C88.8140988,97.8059358 91.3090446,101.132044 91.3090446,106.954557 C91.3090446,111.113286 89.6452613,115.549069 87.981478,119.707798 C86.5962071,123.866527 87.1503155,127.471148 89.6452613,130.243148 C91.863153,132.738094 95.7448279,133.847769 99.903557,133.847769 C108.221015,133.847769 118.202257,126.915581 118.202257,114.440852 C118.202257,99.1912067 106.834286,88.9343692 86.0420988,88.9343692 C71.0709657,88.9343692 58.8718325,93.3701525 46.3956452,102.241719 C23.6626205,118.876635 10.6308666,148.263335 10.6308666,174.046872 C10.6308666,200.66303 22.8299998,215.078597 49.4461576,215.078597 C73.2888573,215.078597 94.6366111,202.326813 107.11134,182.087276 L105.726069,168.225818 L105.726069,168.225818 Z M146.162856,157.413414 C146.162856,177.651493 145.330236,189.018005 144.776127,195.394626 C144.499073,201.771247 140.06329,202.880922 125.369211,203.712084 L125.369211,212.029543 C137.845398,212.029543 150.59864,211.19838 162.51926,211.19838 C177.213339,211.19838 195.512039,212.029543 205.491822,212.029543 L205.491822,203.712084 C192.184472,203.157976 188.025743,202.048301 187.471635,195.673138 C187.194581,188.740951 186.640472,176.264764 186.640472,157.690468 L186.640472,126.361473 C192.461527,126.084419 200.778985,126.084419 210.760226,126.084419 C220.462955,126.084419 230.167143,126.084419 238.207547,126.361473 L238.207547,156.857848 C238.207547,177.928547 237.65198,189.573572 237.374926,195.394626 C237.097872,201.494193 232.939143,202.880922 219.908847,203.712084 L219.908847,212.029543 C226.562522,212.029543 242.366276,211.19838 257.058897,211.19838 C273.139705,211.19838 289.774621,212.029543 297.813567,212.029543 L298.369133,203.712084 C283.120946,202.603868 280.070434,201.771247 279.79338,197.058409 C279.239271,190.12768 278.683705,172.938656 278.683705,153.254685 L278.683705,91.429315 C278.683705,76.7352361 279.239271,62.5952655 279.79338,54.0007532 C280.070434,47.9026448 283.398,46.7929699 297.536513,46.2388615 L297.536513,37.9214033 C292.269567,38.1984575 270.921813,38.7525659 258.445626,38.7525659 C251.514897,38.7525659 229.613034,38.1984575 221.018522,37.9214033 L220.741468,46.2388615 C232.939143,46.7929699 237.374926,47.9026448 237.65198,53.723699 C237.930493,61.2099946 238.207547,69.804507 238.207547,86.160911 L238.207547,115.826123 C229.057468,116.103177 220.741468,116.103177 211.314335,116.103177 C201.611606,116.103177 192.461527,116.103177 186.640472,115.826123 L186.640472,89.7655318 C186.640472,76.4581819 186.917527,63.1508321 187.471635,55.1104281 C188.025743,47.9026448 191.35331,46.5159157 204.383606,46.2388615 L204.66066,37.9214033 L164.183044,38.7525659 C154.757369,38.7525659 135.350452,37.9214033 127.032994,37.9214033 L126.75594,46.2388615 C141.727073,46.5159157 145.608748,47.9026448 145.885802,54.8333739 C146.162856,63.1508321 146.162856,74.2402903 146.162856,95.3109899 L146.162856,157.413414 L146.162856,157.413414 Z" id="Imported-Layers" sketch:type="MSShapeGroup"></path>
        </g>
    </g>
</svg>