<?xml version="1.0" encoding="UTF-8" standalone="no"?>
<svg width="86px" height="54px" viewBox="0 0 86 54" version="1.1" xmlns="http://www.w3.org/2000/svg" xmlns:xlink="http://www.w3.org/1999/xlink" xmlns:sketch="http://www.bohemiancoding.com/sketch/ns">
    <!-- Generator: Sketch 3.3.3 (12081) - http://www.bohemiancoding.com/sketch -->
    <title>cH</title>
    <desc>Created with Sketch.</desc>
    <defs></defs>
    <g id="Page-1" stroke="none" stroke-width="1" fill="none" fill-rule="evenodd" sketch:type="MSPage">
        <g id="Large" sketch:type="MSArtboardGroup" transform="translate(-53.000000, -26.000000)" fill="#FFFFFF">
            <path d="M81.324,65.29 L80.012,65.29 C76.978,72.26 73.288,75.048 68.778,75.048 C65.662,75.048 63.858,72.506 63.858,67.504 C63.858,62.256 65.334,56.598 67.548,51.842 C70.008,46.594 72.632,44.462 74.764,44.462 C76.322,44.462 77.06,45.446 77.06,47.168 C77.06,48.398 76.568,49.71 76.076,50.94 C75.666,52.17 75.83,53.236 76.568,54.056 C77.224,54.794 78.372,55.122 79.602,55.122 C82.062,55.122 85.014,53.072 85.014,49.382 C85.014,44.872 81.652,41.838 75.502,41.838 C71.074,41.838 67.466,43.15 63.776,45.774 C57.052,50.694 53.198,59.386 53.198,67.012 C53.198,74.884 56.806,79.148 64.678,79.148 C71.73,79.148 78.044,75.376 81.734,69.39 L81.324,65.29 Z M93.284,62.092 C93.284,68.078 93.038,71.44 92.874,73.326 C92.792,75.212 91.48,75.54 87.134,75.786 L87.134,78.246 C90.824,78.246 94.596,78 98.122,78 C102.468,78 107.88,78.246 110.832,78.246 L110.832,75.786 C106.896,75.622 105.666,75.294 105.502,73.408 C105.42,71.358 105.256,67.668 105.256,62.174 L105.256,52.908 C106.978,52.826 109.438,52.826 112.39,52.826 C115.26,52.826 118.13,52.826 120.508,52.908 L120.508,61.928 C120.508,68.16 120.344,71.604 120.262,73.326 C120.18,75.13 118.95,75.54 115.096,75.786 L115.096,78.246 C117.064,78.246 121.738,78 126.084,78 C130.84,78 135.76,78.246 138.138,78.246 L138.302,75.786 C133.792,75.458 132.89,75.212 132.808,73.818 C132.644,71.768 132.48,66.684 132.48,60.862 L132.48,42.576 C132.48,38.23 132.644,34.048 132.808,31.506 C132.89,29.702 133.874,29.374 138.056,29.21 L138.056,26.75 C136.498,26.832 130.184,26.996 126.494,26.996 C124.444,26.996 117.966,26.832 115.424,26.75 L115.342,29.21 C118.95,29.374 120.262,29.702 120.344,31.424 C120.426,33.638 120.508,36.18 120.508,41.018 L120.508,49.792 C117.802,49.874 115.342,49.874 112.554,49.874 C109.684,49.874 106.978,49.874 105.256,49.792 L105.256,42.084 C105.256,38.148 105.338,34.212 105.502,31.834 C105.666,29.702 106.65,29.292 110.504,29.21 L110.586,26.75 C107.962,26.75 101.238,26.996 98.614,26.996 C95.826,26.996 90.086,26.75 87.626,26.75 L87.544,29.21 C91.972,29.292 93.12,29.702 93.202,31.752 C93.284,34.212 93.284,37.492 93.284,43.724 L93.284,62.092 Z" id="cH" sketch:type="MSShapeGroup"></path>
        </g>
    </g>
</svg>