<svg width="86" height="54" viewBox="0 0 86 54" xmlns="http://www.w3.org/2000/svg" xmlns:sketch="http://www.bohemiancoding.com/sketch/ns"><title>cH</title><desc>Created with Sketch.</desc><path d="M28.324 39.29h-1.312c-3.034 6.97-6.724 9.758-11.234 9.758-3.116 0-4.92-2.542-4.92-7.544 0-5.248 1.476-10.906 3.69-15.662 2.46-5.248 5.084-7.38 7.216-7.38 1.558 0 2.296.984 2.296 2.706 0 1.23-.492 2.542-.984 3.772-.41 1.23-.246 2.296.492 3.116.656.738 1.804 1.066 3.034 1.066 2.46 0 5.412-2.05 5.412-5.74 0-4.51-3.362-7.544-9.512-7.544-4.428 0-8.036 1.312-11.726 3.936-6.724 4.92-10.578 13.612-10.578 21.238 0 7.872 3.608 12.136 11.48 12.136 7.052 0 13.366-3.772 17.056-9.758l-.41-4.1zm11.96-3.198c0 5.986-.246 9.348-.41 11.234-.082 1.886-1.394 2.214-5.74 2.46v2.46c3.69 0 7.462-.246 10.988-.246 4.346 0 9.758.246 12.71.246v-2.46c-3.936-.164-5.166-.492-5.33-2.378-.082-2.05-.246-5.74-.246-11.234v-9.266c1.722-.082 4.182-.082 7.134-.082 2.87 0 5.74 0 8.118.082v9.02c0 6.232-.164 9.676-.246 11.398-.082 1.804-1.312 2.214-5.166 2.46v2.46c1.968 0 6.642-.246 10.988-.246 4.756 0 9.676.246 12.054.246l.164-2.46c-4.51-.328-5.412-.574-5.494-1.968-.164-2.05-.328-7.134-.328-12.956v-18.286c0-4.346.164-8.528.328-11.07.082-1.804 1.066-2.132 5.248-2.296v-2.46c-1.558.082-7.872.246-11.562.246-2.05 0-8.528-.164-11.07-.246l-.082 2.46c3.608.164 4.92.492 5.002 2.214.082 2.214.164 4.756.164 9.594v8.774c-2.706.082-5.166.082-7.954.082-2.87 0-5.576 0-7.298-.082v-7.708c0-3.936.082-7.872.246-10.25.164-2.132 1.148-2.542 5.002-2.624l.082-2.46-11.972.246c-2.788 0-8.528-.246-10.988-.246l-.082 2.46c4.428.082 5.576.492 5.658 2.542.082 2.46.082 5.74.082 11.972v18.368z" sketch:type="MSShapeGroup" fill="#fff"/></svg>