<?xml version="1.0" encoding="utf-8"?>
<!-- Generator: Adobe Illustrator 18.1.1, SVG Export Plug-In . SVG Version: 6.00 Build 0)  -->
<svg version="1.1" id="Icons" xmlns="http://www.w3.org/2000/svg" xmlns:xlink="http://www.w3.org/1999/xlink" x="0px" y="0px"
	 viewBox="-79 81 100 100" enable-background="new -79 81 100 100" xml:space="preserve">
<path id="Github__x28_alt_x29_" fill="#006D92" d="M-8.3,96c1.2,2.7,1.9,7.1,0.8,10.3c4.6,3.9,6.2,13.5,4,21.4
	c6.6,0.5,14.4-0.2,19.5,1.8c-4.7-0.6-11.2-1.8-17.3-1.4c-1.2,0.1-2.9,0-2.8,1.6c7.1,0.6,14.1,1.2,19.9,3c-5.8-0.9-12.8-2.4-19.9-2.6
	c-3,5.8-8.9,8.7-17.1,9.3c0.9,1.9,2.6,2.7,3,5.7c0.6,4.6-1,11.4,0.6,14.5c0.7,1.5,2,1.5,2.8,2.8c-2,2.4-7-0.3-7.6-2.8
	c-1-4.3,1.5-11-1.2-13.9c0.2,4.7-1.1,11.3,0.2,15.4c0.5,1.6,2,2.3,1.6,3.8c-9.4,1-5.4-12.1-7-19.8c-1.4,0.1-0.8,2.1-0.8,3
	c0,7.5,1.5,17.8-6.6,16.8c-0.2-1.6,1.1-2.1,1.6-3.6c1.5-4.2-0.3-10.5,0.4-15.7c-3.1,2.3,0.3,10.5-1.6,14.7c-1.1,2.4-4.7,3.5-7.4,2.4
	c0.4-1.8,2.2-1.5,3-3.2c1.1-2.3,0-5.7,0.4-9.1c-5.7,1.1-10.2-0.2-12.3-3.8c-1-1.6-1.2-3.5-2.4-5c-1.2-1.4-3-1.6-3.6-3.6
	c7.1-1.7,7.4,7.3,13.7,7.5c2,0.1,3-0.6,4.8-1c0.5-2.3,1.6-4,3.2-5.2c-7.9-1.1-14.5-3.6-17.5-9.5c-7.2,0.4-13.8,1.3-19.9,2.8
	c5.5-2,12.4-2.7,19.7-3c-0.4-2.6-4.2-1.9-6.6-1.8c-4.4,0.2-9.9,0.7-13.3,1.4c5-1.8,12.1-1.6,18.9-1.6c-2.1-6.5-1.4-16.9,3.2-20.8
	c-1.3-3.2-0.9-8.6,0.8-11.1c5.1,0.2,8.2,2.4,11.3,4.6c4-1.1,8.1-1.7,13.5-1.4c2.3,0.1,4.7,1.2,6.4,1c1.7-0.2,3.5-2,5.2-2.8
	C-12.5,96.5-10.7,96.1-8.3,96z"/>
</svg>
