<?xml version="1.0" encoding="utf-8"?>
<!-- Generator: Adobe Illustrator 18.1.1, SVG Export Plug-In . SVG Version: 6.00 Build 0)  -->
<svg version="1.1" id="Layer_1" xmlns="http://www.w3.org/2000/svg" xmlns:xlink="http://www.w3.org/1999/xlink" x="0px" y="0px"
	 viewBox="-79 81 100 100" enable-background="new -79 81 100 100" xml:space="preserve">
<path id="Identi.ca" fill="#006D92" d="M-74,128.6c0,22.1,18.3,40,41,40c6.5,0,12.6-1.5,18.1-4.1l30.9,9L5.9,141.3
	c1.4-4,2.2-8.3,2.2-12.8c0-22.1-18.3-40-41-40C-55.6,88.5-74,106.4-74,128.6z M-5.1,128.5c0,3.4-0.7,6.6-1.8,9.6l5.2,14.5l0,0l0,0
	l0.5,1.3c0,0,0,0,0,0l1.8,4.7L-6,157l0,0l-14.1-4.4c-3.9,2-8.2,3.1-12.9,3.1c-15.4,0-27.8-12.1-27.8-27.1c0-15,12.5-27.2,27.9-27.2
	C-17.5,101.4-5.1,113.5-5.1,128.5z"/>
</svg>
