<?xml version="1.0" encoding="utf-8"?>
<!-- Generator: Adobe Illustrator 18.1.1, SVG Export Plug-In . SVG Version: 6.00 Build 0)  -->
<svg version="1.1" id="Icons" xmlns="http://www.w3.org/2000/svg" xmlns:xlink="http://www.w3.org/1999/xlink" x="0px" y="0px"
	 viewBox="-79 81 100 100" enable-background="new -79 81 100 100" xml:space="preserve">
<path id="Twitter__x28_alt_x29_" fill="#006D92" d="M5.8,127.6c5.1-0.4,8.5-2.7,9.8-5.8c-1.8,1.1-7.5,2.3-10.6,1.2
	c-0.2-0.7-0.3-1.4-0.5-2.1c-2.4-8.7-10.5-15.8-19.1-14.9c0.7-0.3,1.4-0.5,2.1-0.8c0.9-0.3,6.5-1.2,5.6-3.2c-0.7-1.7-7.5,1.3-8.7,1.7
	c1.7-0.6,4.4-1.7,4.7-3.6c-2.6,0.4-5.1,1.6-7,3.3c0.7-0.8,1.2-1.7,1.3-2.7c-6.8,4.4-10.8,13.2-14.1,21.8c-2.5-2.5-4.8-4.4-6.8-5.5
	c-5.7-3-12.4-6.2-23.1-10.2c-0.3,3.5,1.7,8.2,7.7,11.3c-1.3-0.2-3.7,0.2-5.5,0.7c0.8,4,3.3,7.4,10.1,9c-3.1,0.2-4.7,0.9-6.2,2.4
	c1.4,2.8,4.9,6.1,11.1,5.4c-6.9,3-2.8,8.5,2.8,7.7c-9.6,9.9-24.7,9.2-33.4,0.9c22.7,30.9,71.9,18.3,79.3-11.5
	c5.5,0,8.7-1.9,10.7-4.1C12.8,129.1,8.2,128.6,5.8,127.6z"/>
</svg>
