<svg xmlns="http://www.w3.org/2000/svg" viewBox="-79 81 100 100" enable-background="new -79 81 100 100"><path fill="#006D92" d="M5.8 127.6c5.1-.4 8.5-2.7 9.8-5.8-1.8 1.1-7.5 2.3-10.6 1.2l-.5-2.1c-2.4-8.7-10.5-15.8-19.1-14.9l2.1-.8c.9-.3 6.5-1.2 5.6-3.2-.7-1.7-7.5 1.3-8.7 1.7 1.7-.6 4.4-1.7 4.7-3.6-2.6.4-5.1 1.6-7 3.3.7-.8 1.2-1.7 1.3-2.7-6.8 4.4-10.8 13.2-14.1 21.8-2.5-2.5-4.8-4.4-6.8-5.5-5.7-3-12.4-6.2-23.1-10.2-.3 3.5 1.7 8.2 7.7 11.3-1.3-.2-3.7.2-5.5.7.8 4 3.3 7.4 10.1 9-3.1.2-4.7.9-6.2 2.4 1.4 2.8 4.9 6.1 11.1 5.4-6.9 3-2.8 8.5 2.8 7.7-9.6 9.9-24.7 9.2-33.4.9 22.7 30.9 71.9 18.3 79.3-11.5 5.5 0 8.7-1.9 10.7-4.1-3.2.5-7.8 0-10.2-1z"/></svg>